<?xml version="1.0" encoding="UTF-8" standalone="no"?>
<!-- Created with Inkscape (http://www.inkscape.org/) -->

<svg
   width="480"
   height="20"
   viewBox="0 0 24 1"
   version="1.1"
   id="svg54492"
   inkscape:export-filename="grass.png"
   inkscape:export-xdpi="96"
   inkscape:export-ydpi="96"
   inkscape:version="1.2.2 (b0a8486541, 2022-12-01)"
   sodipodi:docname="grass.svg"
   xmlns:inkscape="http://www.inkscape.org/namespaces/inkscape"
   xmlns:sodipodi="http://sodipodi.sourceforge.net/DTD/sodipodi-0.dtd"
   xmlns="http://www.w3.org/2000/svg"
   xmlns:svg="http://www.w3.org/2000/svg">
  <sodipodi:namedview
     id="namedview54494"
     pagecolor="#505050"
     bordercolor="#ffffff"
     borderopacity="1"
     inkscape:showpageshadow="0"
     inkscape:pageopacity="0"
     inkscape:pagecheckerboard="1"
     inkscape:deskcolor="#505050"
     inkscape:document-units="mm"
     showgrid="false"
     inkscape:zoom="12.052714"
     inkscape:cx="37.170052"
     inkscape:cy="5.5174296"
     inkscape:window-width="2200"
     inkscape:window-height="1356"
     inkscape:window-x="1925"
     inkscape:window-y="49"
     inkscape:window-maximized="1"
     inkscape:current-layer="layer1">
    <inkscape:grid
       type="xygrid"
       id="grid6598"
       originx="0"
       originy="0"
       spacingx="20"
       spacingy="20"
       empspacing="1"
       color="#00008e"
       opacity="1"
       dotted="false"
       empcolor="#ffffff"
       empopacity="1" />
  </sodipodi:namedview>
  <defs
     id="defs54489">
    <inkscape:path-effect
       effect="powerstroke"
       id="path-effect1264"
       is_visible="true"
       lpeversion="1"
       offset_points="4.2020493,0.014521625"
       not_jump="true"
       sort_points="true"
       interpolator_type="CentripetalCatmullRom"
       interpolator_beta="0.75"
       start_linecap_type="round"
       linejoin_type="spiro"
       miter_limit="4"
       scale_width="1"
       end_linecap_type="round" />
    <inkscape:path-effect
       effect="simplify"
       id="path-effect1262"
       is_visible="true"
       lpeversion="1"
       steps="1"
       threshold="0.0056285178"
       smooth_angles="0"
       helper_size="0"
       simplify_individual_paths="false"
       simplify_just_coalesce="false"
       step="1" />
    <inkscape:path-effect
       effect="powerstroke"
       id="path-effect1257"
       is_visible="true"
       lpeversion="1"
       offset_points="0.82994679,0.014521625"
       not_jump="true"
       sort_points="true"
       interpolator_type="CentripetalCatmullRom"
       interpolator_beta="0.75"
       start_linecap_type="round"
       linejoin_type="spiro"
       miter_limit="4"
       scale_width="1"
       end_linecap_type="round" />
    <inkscape:path-effect
       effect="simplify"
       id="path-effect1255"
       is_visible="true"
       lpeversion="1"
       steps="1"
       threshold="0.0056285178"
       smooth_angles="0"
       helper_size="0"
       simplify_individual_paths="false"
       simplify_just_coalesce="false"
       step="1" />
    <inkscape:path-effect
       effect="powerstroke"
       id="path-effect1250"
       is_visible="true"
       lpeversion="1"
       offset_points="0.5,0"
       not_jump="true"
       sort_points="true"
       interpolator_type="CentripetalCatmullRom"
       interpolator_beta="0.75"
       start_linecap_type="round"
       linejoin_type="spiro"
       miter_limit="4"
       scale_width="1"
       end_linecap_type="round" />
    <inkscape:path-effect
       effect="simplify"
       id="path-effect1248"
       is_visible="true"
       lpeversion="1"
       steps="1"
       threshold="0.0056285178"
       smooth_angles="0"
       helper_size="0"
       simplify_individual_paths="false"
       simplify_just_coalesce="false"
       step="1" />
    <inkscape:path-effect
       effect="powerstroke"
       id="path-effect1243"
       is_visible="true"
       lpeversion="1"
       offset_points="0.5,0"
       not_jump="true"
       sort_points="true"
       interpolator_type="CentripetalCatmullRom"
       interpolator_beta="0.75"
       start_linecap_type="round"
       linejoin_type="spiro"
       miter_limit="4"
       scale_width="1"
       end_linecap_type="round" />
    <inkscape:path-effect
       effect="simplify"
       id="path-effect1241"
       is_visible="true"
       lpeversion="1"
       steps="1"
       threshold="0.0056285178"
       smooth_angles="0"
       helper_size="0"
       simplify_individual_paths="false"
       simplify_just_coalesce="false"
       step="1" />
    <inkscape:path-effect
       effect="simplify"
       id="path-effect1238"
       is_visible="true"
       lpeversion="1"
       steps="1"
       threshold="0.00243902"
       smooth_angles="360"
       helper_size="0"
       simplify_individual_paths="false"
       simplify_just_coalesce="false" />
  </defs>
  <g
     inkscape:label="Layer 1"
     inkscape:groupmode="layer"
     id="layer1"
     transform="translate(-0.40852302,0.53948593)">
    <rect
       style="opacity:0.987307;fill:#217844;fill-opacity:1;stroke:none;stroke-width:0.295748;stroke-linecap:square;paint-order:markers fill stroke"
       id="rect2052"
       width="4.8378329"
       height="1.7050202"
       x="0.0037464786"
       y="-2.7405841"
       rx="0.097933553"
       ry="0.097933553" />
    <path
       id="circle54470-3"
       style="fill:#5acc55;fill-opacity:1;stroke-width:0.54426;stroke-linecap:round;stroke-linejoin:round;paint-order:stroke fill markers"
       d="m 1.6082986,-0.14365884 c 0.019966,-0.0850007 0.076221,0.0228851 0.1538492,-0.017652 0.1169859,-0.0610897 0.282111,-0.0844365 0.3996608,-0.14490491 0.1187758,-0.0610991 -0.00324,0.10342214 -0.00215,0.24421708 6.131e-4,0.0789286 0.1448151,0.22916366 0.068281,0.21112302 C 1.9788721,0.09041289 1.6324754,0.27980712 1.694258,0.15455889 1.8032367,-0.06636709 1.5791233,-0.01945223 1.6082986,-0.14365884 Z"
       sodipodi:nodetypes="sssssss" />
    <path
       id="path6624"
       style="fill:#4db659;fill-opacity:1;stroke-width:0.54426;stroke-linecap:round;stroke-linejoin:round;paint-order:stroke fill markers"
       d="m 2.5555134,-0.26163655 c 0.042706,-0.0565664 0.1930713,0.10364134 0.2564975,0.0703639 0.1160813,-0.0609037 0.1635321,-0.28432683 0.3003339,-0.23812166 0.095796,0.0323552 -0.1459035,0.25786717 -0.1197243,0.37826103 C 3.0211593,0.0801116 3.3100092,0.10759444 3.2291901,0.1605468 3.163205,0.20377996 3.0445249,0.1516618 2.9801524,0.1984296 2.8953656,0.2600292 2.8623253,0.41288894 2.7458346,0.38296873 2.6529646,0.35911541 2.7563009,0.18001327 2.7143729,0.05448934 2.668836,-0.0818389 2.4846625,-0.16779111 2.5555134,-0.26163655 Z"
       sodipodi:nodetypes="sssssssss" />
    <path
       id="circle54470-5"
       style="fill:#77b84f;fill-opacity:1;stroke-width:0.59476;stroke-linecap:round;stroke-linejoin:round;paint-order:stroke fill markers"
       d="m 4.3091946,-0.03253506 c -3.247e-4,-0.05986739 -0.034901,-0.06485167 -0.056615,-0.12876222 -0.018203,-0.0535774 -0.021335,-0.17011053 -0.046127,-0.18627681 -0.043325,-0.0282511 -0.083108,0.0709351 -0.1625698,0.04649 -0.036269,-0.0111575 -0.1266111,-0.1539379 -0.165516,-0.15680789 -0.048473,-0.003576 -0.037632,0.10609 -0.065105,0.12799752 -0.029254,0.0233267 -0.095749,-0.0397955 -0.1127742,-0.001401 -0.045335,0.10223825 -0.068486,0.23262286 -0.1822038,0.25655225 -0.1344942,0.02830134 0.1051254,0.14248695 0.1780811,0.19886806 0.053327,0.041212 0.080805,0.15528546 0.1806091,0.13424079 0.1077334,-0.0227167 0.1678535,-0.0543334 0.2012621,-0.10072616 0.02249,-0.0312314 0.0063,-0.11177161 0.057548,-0.13368063 0.05338,-0.022822 0.1737841,0.0123066 0.173411,-0.05649409 z"
       sodipodi:nodetypes="sssssssssssss" />
    <path
       id="path6639"
       style="fill:#c87137;stroke-width:0.552574;stroke-linecap:round;stroke-linejoin:round;paint-order:stroke fill markers"
       d="M 4.6803978,0.24440416 C 4.879173,0.34720245 5.0602001,0.22173026 5.223087,0.08256341 5.523175,-0.17382485 5.275135,-0.3044213 5.0609465,-0.37525091 c -0.2128626,-0.0703912 -0.5391892,0.0413096 -0.6008519,0.25374627 -0.066741,0.22993195 0.025565,0.26520157 0.2203032,0.3659088 z"
       sodipodi:nodetypes="sssss" />
    <path
       id="path6641"
       style="fill:#ff7f2a;stroke-width:0.552574;stroke-linecap:round;stroke-linejoin:round;paint-order:stroke fill markers"
       d="M 5.658124,0.25266322 C 5.8704854,0.00805948 6.0449256,0.05101522 6.2008132,0.09082248 6.5855197,0.18906066 6.2528612,-0.29616224 6.0386726,-0.36699185 5.8258101,-0.43738305 5.4994834,-0.32568225 5.4378207,-0.11324558 5.3710797,0.11668638 5.5152387,0.4172422 5.658124,0.25266322 Z"
       sodipodi:nodetypes="sssss" />
    <path
       id="path6641-6"
       style="fill:#d45500;stroke-width:0.552574;stroke-linecap:round;stroke-linejoin:round;paint-order:stroke fill markers"
       d="M 6.6749734,0.2405411 C 6.8840018,0.64695647 7.060842,0.2211191 7.2176626,0.07870035 7.5097079,-0.18652455 7.2697106,-0.30828436 7.055522,-0.37911397 6.8426595,-0.44950517 6.5163329,-0.33780437 6.4546702,-0.1253677 6.3879292,0.10456425 6.575645,0.04741613 6.6749734,0.2405411 Z"
       sodipodi:nodetypes="sssss" />
    <path
       id="path6665"
       style="fill:#d38d5f;stroke-width:0.552574;stroke-linecap:round;stroke-linejoin:round;paint-order:stroke fill markers"
       d="M 8.2696453,-0.3175713 C 8.0606169,-0.72398667 7.7161975,-0.2335146 7.559377,-0.09109591 7.2673317,0.17412899 7.507329,0.29588881 7.7215175,0.36671842 7.9343801,0.43710962 8.2607067,0.32540882 8.3223694,0.11297215 8.3891104,-0.11695981 8.3689734,-0.12444633 8.2696453,-0.3175713 Z"
       sodipodi:nodetypes="sssss" />
    <path
       id="path6665-2"
       style="fill:#48373e;stroke-width:0.552574;stroke-linecap:round;stroke-linejoin:round;paint-order:stroke fill markers"
       d="M 9.0221256,0.21812923 C 8.8130972,0.6245446 8.6017092,0.20467857 8.5394754,0.0038381 8.4895062,-0.15742325 8.7727098,-0.29858285 8.9004423,-0.40654243 9.0707793,-0.55051127 9.1262253,-0.49086983 9.187888,-0.2784331 9.254629,-0.04850114 9.121454,0.02500426 9.0221256,0.21812923 Z"
       sodipodi:nodetypes="sssss" />
    <path
       id="path6665-2-1"
       style="fill:#6c535d;stroke-width:0.552574;stroke-linecap:round;stroke-linejoin:round;paint-order:stroke fill markers"
       d="m 9.7545756,-0.32667313 c 0.4521344,-0.0980099 0.4688534,0.0344798 0.5310874,0.23532029 0.04997,0.16126136 -0.03441,0.34985475 -0.162141,0.45781433 C 9.953185,0.51043033 9.5843335,0.32515189 9.5226705,0.11271522 9.4559258,-0.11721674 9.4241637,-0.25504921 9.6390137,-0.30162254 Z"
       sodipodi:nodetypes="ssssss" />
    <path
       id="path6726"
       style="fill:#916f7c;stroke-width:0.552574;stroke-linecap:round;stroke-linejoin:round;paint-order:stroke fill markers"
       d="m 11.203874,-0.32179896 c -0.209029,-0.40641537 -0.650657,0.0248664 -0.710269,0.22647539 -0.04702,0.15900957 0.34943,0.44230942 0.521682,0.43505596 0.225766,-0.009507 0.2184,-0.0611872 0.280063,-0.27362388 0.06675,-0.22993195 0.0078,-0.19478251 -0.09148,-0.38790747 z"
       sodipodi:nodetypes="ssssss" />
    <path
       id="path6728"
       style="fill:#ac939d;stroke-width:0.552574;stroke-linecap:round;stroke-linejoin:round;paint-order:stroke fill markers"
       d="m 11.892329,0.29845652 c 0.40787,0.21552348 0.332075,-0.0934623 0.394309,-0.29430278 0.04997,-0.16126136 -0.03441,-0.34985475 -0.16214,-0.45781433 -0.170338,-0.14396884 -0.539189,0.0413096 -0.600852,0.25374627 -0.06675,0.22993196 -0.03698,0.28401105 0.156831,0.38642569 z"
       sodipodi:nodetypes="ssssss" />
    <path
       style="fill:#000000;stroke:none;stroke-opacity:1;stroke-linejoin:miter;stroke-linecap:butt;stroke-width:1px"
       d="M 3.7414741,8.0638203 C 3.2627852,6.7956657 2.7840962,5.5275111 2.3054073,4.2593565"
       id="path1236"
       inkscape:path-effect="#path-effect1238"
       inkscape:original-d="M 3.7414741,8.0638203 2.3054073,4.2593565" />
    <path
       style="fill:#67c45d;fill-opacity:1;stroke:none;stroke-width:0.0383566px;stroke-linecap:butt;stroke-linejoin:miter;stroke-opacity:1"
       d="m 0.94056551,-0.09369816 c 0,0 0.0622635,-0.05772878 0.0748736,-0.1536034 0.01261,-0.0958746 0.098793,0.15073722 0.098793,0.15073722 0,0 0.1169556,0.02612338 0.1476931,-0.02522171 0.030737,-0.0513451 0.1388839,0.14719601 -0.031441,0.16983833 C 1.0601586,0.07069459 1.3207015,0.29742077 1.0718274,0.19979197 0.8229532,0.10216318 0.73764551,0.30480863 0.75260961,0.18580632 0.76757374,0.06680401 0.28989437,0.05998417 0.49945112,0.00698269 c 0.20955674,-0.05300152 0.0593248,-0.2373157 0.14271148,-0.19445163 0.0833866,0.0428641 0.0825919,-0.35768575 0.14331926,-0.19905822 0.0607273,0.15862753 0.052724,0.37923763 0.15508365,0.292829 z"
       id="path1331" />
  </g>
</svg>
